<?xml version="1.0" standalone="no"?>
<!DOCTYPE svg PUBLIC "-//W3C//DTD SVG 20010904//EN"
 "http://www.w3.org/TR/2001/REC-SVG-20010904/DTD/svg10.dtd">
<svg version="1.0" xmlns="http://www.w3.org/2000/svg"
 width="58.000000pt" height="58.000000pt" viewBox="0 0 58.000000 58.000000"
 preserveAspectRatio="xMidYMid meet">

<g transform="translate(0.000000,58.000000) scale(0.100000,-0.100000)"
fill="#000000" stroke="none">
<path d="M181 566 c-7 -8 -10 -24 -6 -36 4 -13 0 -31 -9 -45 -18 -27 -20 -62
-7 -84 8 -12 12 -13 26 -1 9 7 13 20 10 27 -3 8 2 24 10 36 18 26 19 77 2 101
-12 16 -14 16 -26 2z"/>
<path d="M298 569 c-13 -7 -16 -17 -12 -39 4 -18 0 -37 -10 -51 -20 -29 -20
-49 -2 -74 11 -16 17 -17 29 -7 8 7 13 21 10 32 -3 10 2 29 11 42 19 26 19 43
3 80 -10 22 -15 25 -29 17z"/>
<path d="M57 343 c-11 -10 -8 -173 2 -173 33 0 39 12 34 71 l-6 59 153 0 153
0 -5 -78 c-3 -58 -11 -90 -29 -123 l-24 -44 -86 -3 c-67 -2 -89 1 -99 13 -11
13 -15 13 -41 -2 -19 -11 -29 -26 -29 -40 l0 -23 170 0 c162 0 170 1 170 20 0
10 -7 23 -16 28 -14 8 -14 12 2 45 11 24 25 37 37 37 10 0 34 15 53 34 29 29
34 41 34 79 0 37 -5 49 -26 66 -15 12 -37 21 -50 21 -12 0 -26 5 -29 10 -7 11
-357 14 -368 3z m428 -83 c8 -27 -21 -79 -45 -80 -3 0 -3 22 -2 50 3 41 7 50
22 50 10 0 21 -9 25 -20z"/>
<path d="M70 120 c0 -16 5 -21 23 -18 12 2 22 10 22 18 0 8 -10 16 -22 18 -18
3 -23 -2 -23 -18z"/>
</g>
</svg>
